
<svg version="1.0" xmlns="http://www.w3.org/2000/svg"
    viewBox="0 0 213.000000 231.000000"
 preserveAspectRatio="xMidYMid meet">
    <g transform="translate(0.000000,231.000000) scale(0.100000,-0.100000)"
    fill="#000" stroke="none">
    <path d="M68 2295 c163 -36 233 -126 252 -327 12 -122 12 -1505 0 -1628 -11
    -121 -23 -159 -63 -211 -44 -57 -101 -96 -167 -113 -50 -13 -13 -15 435 -14
    270 0 470 4 445 8 -151 26 -238 126 -259 300 -6 47 -11 251 -11 454 l0 369 98
    -5 c148 -8 216 -44 306 -162 103 -135 192 -303 336 -636 54 -124 108 -249 121
    -277 l23 -53 275 1 c255 0 273 1 229 15 -33 10 -59 28 -91 64 -80 89 -127 175
    -415 770 -88 183 -131 238 -221 279 -28 14 -51 28 -51 32 0 7 63 29 83 29 24
    0 149 58 197 91 103 70 171 159 212 278 33 95 33 267 0 362 -62 180 -175 295
    -353 360 l-80 29 -682 -1 c-604 0 -675 -2 -619 -14z m813 -5 c81 -6 163 -18
    199 -29 146 -46 245 -153 304 -331 74 -225 22 -465 -135 -623 -109 -109 -195
    -137 -426 -137 l-123 0 0 558 c0 307 3 562 7 565 8 9 11 9 174 -3z"/>
    </g>
</svg>
